<svg id="Layer_1" data-name="Layer 1" xmlns="http://www.w3.org/2000/svg" viewBox="0 0 18 17"><defs><style>.cls-1{fill:#fff;}</style></defs><title>Operations_white</title><path class="cls-1" d="M40,110H28a1,1,0,0,0-1,1v11.26a1.41,1.41,0,0,0,.36,1.17L30.78,127H44a1,1,0,0,0,1-1V113.86l-3.8-3.45A1.9,1.9,0,0,0,40,110Zm2.06,5.16H32.37v8.95a0.73,0.73,0,1,1-1.45,0V115a0.76,0.76,0,0,1-.08-0.09l-0.08-.06-1.52-1.52a0.73,0.73,0,1,1,1-1l1.45,1.45H42.06A0.73,0.73,0,1,1,42.06,115.16Z" transform="translate(-27 -110)"/></svg>